<?xml version="1.0" encoding="UTF-8" standalone="no"?>
<!-- Created with Inkscape (http://www.inkscape.org/) -->

<svg
   width="80"
   height="80"
   viewBox="0 0 21.166666 21.166666"
   version="1.1"
   id="svg5"
   inkscape:version="1.1.2 (0a00cf5339, 2022-02-04)"
   sodipodi:docname="backup.svg"
   xmlns:inkscape="http://www.inkscape.org/namespaces/inkscape"
   xmlns:sodipodi="http://sodipodi.sourceforge.net/DTD/sodipodi-0.dtd"
   xmlns="http://www.w3.org/2000/svg"
   xmlns:svg="http://www.w3.org/2000/svg">
  <sodipodi:namedview
     id="namedview7"
     pagecolor="#ffffff"
     bordercolor="#666666"
     borderopacity="1.0"
     inkscape:pageshadow="2"
     inkscape:pageopacity="0.0"
     inkscape:pagecheckerboard="0"
     inkscape:document-units="mm"
     showgrid="true"
     borderlayer="true"
     inkscape:showpageshadow="false"
     units="px"
     width="24px"
     inkscape:zoom="10.606602"
     inkscape:cx="38.843732"
     inkscape:cy="41.625019"
     inkscape:window-width="1920"
     inkscape:window-height="1136"
     inkscape:window-x="0"
     inkscape:window-y="0"
     inkscape:window-maximized="1"
     inkscape:current-layer="layer1"
     inkscape:snap-bbox="true"
     inkscape:bbox-nodes="true"
     inkscape:bbox-paths="true">
    <inkscape:grid
       type="xygrid"
       id="grid9"
       empspacing="1"
       dotted="true"
       originx="0"
       originy="0"
       empcolor="#3f3fff"
       empopacity="0.63529412"
       color="#ffffff"
       opacity="0"
       spacingx="1.3229167"
       spacingy="1.3229167"
       units="px" />
  </sodipodi:namedview>
  <defs
     id="defs2" />
  <g
     inkscape:label="Layer 1"
     inkscape:groupmode="layer"
     id="layer1">
    <path
       id="path1199-786-89"
       style="fill:#f3b1cb;stroke-width:3"
       d="m 3.9687508,7.9375002 h 1.322916 v 1.322917 h -1.322916 z" />
    <path
       id="path1199-786-6"
       style="fill:#f3b1cb;stroke-width:3"
       d="m 9.2604176,7.9375002 h 1.3229164 v 1.322917 H 9.2604176 Z" />
    <path
       id="path1199-786-4"
       style="fill:#f3b1cb;stroke-width:3"
       d="m 3.9687508,9.2604162 h 1.322916 v 1.3229168 h -1.322916 z" />
    <path
       id="path1199-786-33"
       style="fill:#f3b1cb;stroke-width:3"
       d="m 3.9687508,10.583333 h 1.322916 v 1.322917 h -1.322916 z" />
    <path
       id="path1199-786-38"
       style="fill:#f3b1cb;stroke-width:3"
       d="m 3.9687504,13.229166 h 1.322916 v 1.322917 h -1.322916 z" />
    <path
       id="path1199-786-60"
       style="fill:#f3b1cb;stroke-width:3"
       d="m 6.6145838,19.843749 h 1.322916 v 1.322917 h -1.322916 z" />
    <path
       id="path1199-786-48"
       style="fill:#f3b1cb;stroke-width:3"
       d="m 7.9375005,19.843749 h 1.322916 v 1.322917 h -1.322916 z" />
    <path
       id="path1199-786-889"
       style="fill:#f3b1cb;stroke-width:3"
       d="m 9.2604172,19.843749 h 1.3229168 v 1.322917 H 9.2604172 Z" />
    <path
       id="path1199-786-77"
       style="fill:#f3b1cb;stroke-width:3"
       d="m 10.583334,19.843749 h 1.322916 v 1.322917 h -1.322916 z" />
    <path
       id="path1199-786-64"
       style="fill:#f3b1cb;stroke-width:3"
       d="m 11.906251,19.843749 h 1.322916 v 1.322917 h -1.322916 z" />
    <path
       id="path1199-786-30"
       style="fill:#f3b1cb;stroke-width:3"
       d="m 13.229168,19.843749 h 1.322916 v 1.322917 h -1.322916 z" />
    <path
       id="path1199-786-309"
       style="fill:#f3b1cb;stroke-width:3"
       d="M 14.552084,19.843749 H 15.875 v 1.322917 h -1.322916 z" />
    <path
       id="path1199-786-2"
       style="fill:#f3b1cb;stroke-width:3"
       d="m 15.875001,19.843749 h 1.322916 v 1.322917 h -1.322916 z" />
    <path
       id="path1199-786-54"
       style="fill:#f3b1cb;stroke-width:3"
       d="m 17.197918,19.843749 h 1.322916 v 1.322917 h -1.322916 z" />
    <path
       id="path1199-786-0"
       style="fill:#f3b1cb;stroke-width:3"
       d="m 18.520834,19.843749 h 1.322916 v 1.322917 h -1.322916 z" />
    <path
       id="path1199-786-92"
       style="fill:#f3b1cb;stroke-width:3"
       d="m 3.9687504,15.874999 h 1.322916 v 1.322917 h -1.322916 z" />
    <path
       id="path1199-786-24"
       style="fill:#f3b1cb;stroke-width:3"
       d="m 3.9687504,14.552082 h 1.322916 v 1.322917 h -1.322916 z" />
    <path
       id="path1199-786-775"
       style="fill:#f3b1cb;stroke-width:3"
       d="m 9.2604172,13.229166 h 1.3229168 v 1.322917 H 9.2604172 Z" />
    <path
       id="path1199-786-481"
       style="fill:#f3b1cb;stroke-width:3"
       d="m 9.2604171,13.229166 h 1.3229169 v 1.322917 H 9.2604171 Z" />
    <path
       id="path1199-786-28"
       style="fill:#f3b1cb;stroke-width:3"
       d="M 10.583334,14.552083 H 11.90625 V 15.875 h -1.322916 z" />
    <path
       id="path1199-786-93"
       style="fill:#f3b1cb;stroke-width:3"
       d="m 11.906251,14.552083 h 1.322916 V 15.875 h -1.322916 z" />
    <path
       id="path1199-786-68"
       style="fill:#f3b1cb;stroke-width:3"
       d="m 13.229167,14.552083 h 1.322916 V 15.875 h -1.322916 z" />
    <path
       id="path1199-786-02"
       style="fill:#f3b1cb;stroke-width:3"
       d="M 14.552084,14.552083 H 15.875 V 15.875 h -1.322916 z" />
    <path
       id="path1199-786-10"
       style="fill:#f3b1cb;stroke-width:3"
       d="m 15.875001,14.552083 h 1.322916 V 15.875 h -1.322916 z" />
    <path
       id="path1199-786-51"
       style="fill:#f3b1cb;stroke-width:3"
       d="m 17.197917,14.552083 h 1.322916 V 15.875 h -1.322916 z" />
    <path
       id="path1199-786-108"
       style="fill:#f3b1cb;stroke-width:3"
       d="M 18.520834,14.552083 H 19.84375 V 15.875 h -1.322916 z" />
    <path
       id="path1199-786-646"
       style="fill:#f3b1cb;stroke-width:3"
       d="m 19.843751,15.875 h 1.322916 v 1.322917 h -1.322916 z" />
    <path
       id="path1199-786-59"
       style="fill:#f3b1cb;stroke-width:3"
       d="M 9.2604176,9.2604162 H 10.583334 V 10.583333 H 9.2604176 Z" />
    <path
       id="path1199-786-46"
       style="fill:#f3b1cb;stroke-width:3"
       d="M 9.2604176,10.583333 H 10.583334 V 11.90625 H 9.2604176 Z" />
    <path
       id="path1199-786-25"
       style="fill:#f3b1cb;stroke-width:3"
       d="m 1.3229168,5.2916664 h 1.322916 v 1.322917 h -1.322916 z" />
    <path
       id="path1199-786-86"
       style="fill:#f3b1cb;stroke-width:3"
       d="m 2.6458338,3.9687494 h 1.322916 v 1.322917 h -1.322916 z" />
    <path
       id="path1199-786-284"
       style="fill:#f3b1cb;stroke-width:3"
       d="m 3.9687498,2.6458334 h 1.322916 v 1.322917 h -1.322916 z" />
    <path
       id="path1199-786-72"
       style="fill:#f3b1cb;stroke-width:3"
       d="m 5.2916668,1.3229164 h 1.322916 v 1.322917 h -1.322916 z" />
    <path
       id="path1199-786-40"
       style="fill:#f3b1cb;stroke-width:3"
       d="m 6.6145835,-6e-7 h 1.322916 v 1.322917 h -1.322916 z" />
    <path
       id="path1199-786-62"
       style="fill:#f3b1cb;stroke-width:3"
       d="m 7.9375002,1.3229164 h 1.322916 v 1.322917 h -1.322916 z" />
    <path
       id="path1199-786-99"
       style="fill:#f3b1cb;stroke-width:3"
       d="m 9.2604169,2.6458334 h 1.3229161 v 1.322917 H 9.2604169 Z" />
    <path
       id="path1199-786-08"
       style="fill:#f3b1cb;stroke-width:3"
       d="m 10.583334,3.9687494 h 1.322916 v 1.322917 h -1.322916 z" />
    <path
       id="path1199-786-13"
       style="fill:#f3b1cb;stroke-width:3"
       d="m 11.906251,5.2916664 h 1.322916 v 1.322917 h -1.322916 z" />
    <path
       id="path1199-786-11"
       style="fill:#f3b1cb;stroke-width:3"
       d="m 5.291667,19.843749 h 1.322916 v 1.322917 H 5.291667 Z" />
    <path
       id="path1199-786-03"
       style="fill:#f3b1cb;stroke-width:3"
       d="m 19.843751,17.197916 h 1.322916 v 1.322917 h -1.322916 z" />
    <path
       id="path1199-786-403"
       style="fill:#f3b1cb;stroke-width:3"
       d="m 3.96875,17.197916 h 1.322916 v 1.322917 H 3.96875 Z" />
    <path
       id="path1199-786-9"
       style="fill:#f3b1cb;stroke-width:3"
       d="m 3.9687497,6.6145827 h 1.322916 v 1.322917 h -1.322916 z" />
    <path
       id="path1199-786-19"
       style="fill:#f3b1cb;stroke-width:3"
       d="m 9.2604168,6.6145827 h 1.3229162 v 1.322917 H 9.2604168 Z" />
    <path
       id="path1199-786-69"
       style="fill:#f3b1cb;stroke-width:3"
       d="M 3.96875,18.520832 H 5.291666 V 19.84375 H 3.96875 Z" />
    <path
       id="path1199-786-3"
       style="fill:#f3b1cb;stroke-width:3"
       d="m 19.843751,18.520832 h 1.322916 v 1.322918 h -1.322916 z" />
    <path
       id="path1199-786"
       style="fill:#f3b1cb;stroke-width:3"
       d="m 9.2604168,11.90625 h 1.3229162 v 1.322917 H 9.2604168 Z" />
    <path
       id="path1199-786-67"
       style="fill:#f3b1cb;stroke-width:3"
       d="m 3.96875,11.90625 h 1.322916 v 1.322917 H 3.96875 Z" />
    <path
       id="path1199-786-66"
       style="fill:#f3b1cb;stroke-width:3"
       d="m 7e-7,6.6145832 h 1.322916 v 1.322917 H 7e-7 Z" />
    <path
       id="path1199-786-462"
       style="fill:#f3b1cb;stroke-width:3"
       d="m 13.229167,6.6145827 h 1.322916 v 1.322917 h -1.322916 z" />
    <path
       id="path1199-786-7"
       style="fill:#f3b1cb;stroke-width:3"
       d="m 5.2916667,2.645833 h 1.322916 V 3.96875 h -1.322916 z" />
    <path
       id="path1199-786-282"
       style="fill:#f3b1cb;stroke-width:3"
       d="M 3.96875,3.96875 H 5.291666 V 5.291667 H 3.96875 Z" />
    <path
       id="path1199-786-996"
       style="fill:#f3b1cb;stroke-width:3"
       d="M 2.645833,5.291666 H 3.968749 V 6.614583 H 2.645833 Z" />
    <path
       id="path1199-786-027"
       style="fill:#f3b1cb;stroke-width:3"
       d="M 1.322917,6.614583 H 2.645833 V 7.9375 H 1.322917 Z" />
    <path
       id="path1199-786-61"
       style="fill:#f3b1cb;stroke-width:3"
       d="m 7.9375001,2.645833 h 1.322916 V 3.96875 h -1.322916 z" />
    <path
       id="path1199-786-32"
       style="fill:#f3b1cb;stroke-width:3"
       d="M 9.2604168,3.96875 H 10.583333 V 5.291667 H 9.2604168 Z" />
    <path
       id="path1199-786-1"
       style="fill:#f3b1cb;stroke-width:3"
       d="M 10.583334,5.291666 H 11.90625 V 6.614583 H 10.583334 Z" />
    <path
       id="path1199-786-5"
       style="fill:#f3b1cb;stroke-width:3"
       d="m 11.90625,6.614583 h 1.322916 V 7.9375 H 11.90625 Z" />
    <path
       id="path1199-786-991"
       style="fill:#f3b1cb;stroke-width:3"
       d="m 6.6145834,1.322916 h 1.322916 v 1.322917 h -1.322916 z" />
  </g>
</svg>
